<svg id="Layer_1" data-name="Layer 1" xmlns="http://www.w3.org/2000/svg" viewBox="0 0 73.44 74.79"><defs><style>.cls-1{fill:none;}.cls-1,.cls-2,.cls-3,.cls-4{stroke:#231f20;stroke-linecap:round;stroke-linejoin:round;stroke-width:2.25px;}.cls-2{fill:#00baf2;}.cls-3{fill:#00a668;}.cls-4{fill:#fcd947;}</style></defs><title>EmpirEqual_home</title><polyline class="cls-1" points="9.06 38.8 1.13 31.13 64.67 31.13"/><line class="cls-1" x1="72.31" y1="38.8" x2="64.67" y2="31.13"/><line class="cls-1" x1="9.06" y1="56.24" x2="1.13" y2="48.26"/><line class="cls-1" x1="1.13" y1="48.26" x2="1.13" y2="31.13"/><rect class="cls-2" x="9.06" y="38.8" width="63.25" height="17.43"/><polygon class="cls-3" points="72.31 56.23 9.06 56.23 1.13 48.26 64.67 48.26 72.31 56.23"/><rect class="cls-4" x="9.06" y="56.24" width="63.25" height="17.43"/><polyline class="cls-1" points="64.67 48.26 1.13 48.26 9.06 56.53"/><polyline class="cls-1" points="72.31 56.6 64.67 48.26 64.67 31.13"/><line class="cls-1" x1="9.06" y1="73.67" x2="1.13" y2="65.4"/><line class="cls-1" x1="1.13" y1="48.26" x2="1.13" y2="65.4"/><polygon class="cls-1" points="72.31 73.45 64.67 65.4 1.13 65.4 9.06 73.37 72.31 73.45"/><line class="cls-2" x1="9.06" y1="56.24" x2="9.06" y2="38.8"/><line class="cls-1" x1="64.67" y1="65.4" x2="64.67" y2="48.26"/><polygon class="cls-1" points="42.8 7.16 9.13 38.16 1.13 31.13 33.8 1.13 42.8 7.16"/><line class="cls-1" x1="42.8" y1="7.16" x2="72.31" y2="38.8"/><line class="cls-1" x1="33.8" y1="1.13" x2="64.67" y2="31.13"/></svg>