<svg id="Layer_1" data-name="Layer 1" xmlns="http://www.w3.org/2000/svg" viewBox="0 0 579.46 235.1"><defs><style>.cls-1{fill:none;}.cls-1,.cls-2,.cls-3,.cls-4{stroke:#231f20;stroke-linecap:round;stroke-linejoin:round;stroke-width:4.32px;}.cls-2{fill:#00baf2;}.cls-3{fill:#00a668;}.cls-4{fill:#fcd947;}.cls-5{font-size:50.11px;font-family:Crete;}.cls-5,.cls-6{fill:#231f20;}.cls-6{font-size:17.28px;font-family:Montserrat;}</style></defs><title>EmpirEqual_v2</title><polyline class="cls-1" points="236.63 16.9 221.39 2.16 343.39 2.16"/><line class="cls-1" x1="358.07" y1="16.9" x2="343.39" y2="2.16"/><line class="cls-1" x1="236.63" y1="50.37" x2="221.39" y2="35.07"/><line class="cls-1" x1="221.39" y1="35.07" x2="221.39" y2="2.16"/><rect class="cls-2" x="236.63" y="16.9" width="121.44" height="33.47"/><polygon class="cls-3" points="358.07 50.37 236.63 50.37 221.39 35.07 343.39 35.07 358.07 50.37"/><rect class="cls-4" x="236.63" y="50.37" width="121.44" height="33.47"/><polyline class="cls-1" points="343.39 35.07 221.39 35.07 236.63 50.94"/><polyline class="cls-1" points="358.07 51.08 343.39 35.07 343.39 2.16"/><line class="cls-1" x1="236.63" y1="83.84" x2="221.39" y2="67.97"/><line class="cls-1" x1="221.39" y1="35.07" x2="221.39" y2="67.97"/><polygon class="cls-1" points="358.07 83.42 343.39 67.97 221.39 67.97 236.63 83.28 358.07 83.42"/><line class="cls-2" x1="236.63" y1="50.37" x2="236.63" y2="16.9"/><line class="cls-1" x1="343.39" y1="67.97" x2="343.39" y2="35.07"/><text class="cls-5" transform="translate(153.08 160.74)">EmpirEq<tspan x="201.05" y="0">u</tspan><tspan x="231.57" y="0">al</tspan></text><text class="cls-6" transform="translate(62.71 202.42)">C<tspan x="12.13" y="0">om</tspan><tspan x="41.58" y="0">p</tspan><tspan x="53.38" y="0">a</tspan><tspan x="63.62" y="0">n</tspan><tspan x="75.25" y="0">y </tspan><tspan x="89.16" y="0">C</tspan><tspan x="101.38" y="0">u</tspan><tspan x="113.11" y="0">l</tspan><tspan x="117.68" y="0">tu</tspan><tspan x="136.46" y="0">r</tspan><tspan x="143.2" y="0">e Anal</tspan><tspan x="197.39" y="0">y</tspan><tspan x="206.94" y="0">tics + </tspan><tspan x="256.1" y="0">P</tspan><tspan x="268.18" y="0">r</tspan><tspan x="274.92" y="0">e</tspan><tspan x="285.24" y="0">v</tspan><tspan x="294.27" y="0">entati</tspan><tspan x="345.59" y="0">v</tspan><tspan x="354.63" y="0">e Solutions.</tspan></text></svg>