<svg id="Layer_1" data-name="Layer 1" xmlns="http://www.w3.org/2000/svg" viewBox="0 0 318.15 53.5"><defs><style>.cls-1{font-size:38.28px;fill:#231f20;font-family:Crete;}.cls-2{fill:none;}.cls-2,.cls-3,.cls-4,.cls-5{stroke:#231f20;stroke-linecap:round;stroke-linejoin:round;stroke-width:2.25px;}.cls-3{fill:#00baf2;}.cls-4{fill:#00a668;}.cls-5{fill:#fcd947;}</style></defs><title>EmpirEqual_v2horiz</title><text class="cls-1" transform="translate(91.33 35.85)">EmpirEq<tspan x="153.58" y="0">u</tspan><tspan x="176.89" y="0">al</tspan></text><polyline class="cls-2" points="9.06 8.8 1.13 1.13 64.67 1.13"/><line class="cls-2" x1="72.31" y1="8.8" x2="64.67" y2="1.13"/><line class="cls-2" x1="9.06" y1="26.24" x2="1.13" y2="18.26"/><line class="cls-2" x1="1.13" y1="18.26" x2="1.13" y2="1.13"/><rect class="cls-3" x="9.06" y="8.8" width="63.25" height="17.43"/><polygon class="cls-4" points="72.31 26.23 9.06 26.23 1.13 18.26 64.67 18.26 72.31 26.23"/><rect class="cls-5" x="9.06" y="26.24" width="63.25" height="17.43"/><polyline class="cls-2" points="64.67 18.26 1.13 18.26 9.06 26.53"/><polyline class="cls-2" points="72.31 26.6 64.67 18.26 64.67 1.13"/><line class="cls-2" x1="9.06" y1="43.67" x2="1.13" y2="35.4"/><line class="cls-2" x1="1.13" y1="18.26" x2="1.13" y2="35.4"/><polygon class="cls-2" points="72.31 43.45 64.67 35.4 1.13 35.4 9.06 43.37 72.31 43.45"/><line class="cls-3" x1="9.06" y1="26.24" x2="9.06" y2="8.8"/><line class="cls-2" x1="64.67" y1="35.4" x2="64.67" y2="18.26"/></svg>