<svg id="Layer_1" data-name="Layer 1" xmlns="http://www.w3.org/2000/svg" viewBox="0 0 746.35 422.94"><defs><style>.cls-1{fill:none;}.cls-1,.cls-2,.cls-3,.cls-4{stroke:#231f20;stroke-linecap:round;stroke-linejoin:round;stroke-width:7.46px;}.cls-2{fill:#00b9f1;}.cls-3{fill:#00a568;}.cls-4{fill:#fbd846;}.cls-5,.cls-6{fill:#231f20;}.cls-6{font-size:40px;font-family:Montserrat;}</style></defs><title>EmpirEqual_Login</title><polyline class="cls-1" points="281.42 29.2 255.08 3.73 465.91 3.73"/><line class="cls-1" x1="491.27" y1="29.2" x2="465.91" y2="3.73"/><line class="cls-1" x1="281.41" y1="87.04" x2="255.08" y2="60.59"/><line class="cls-1" x1="255.08" y1="60.59" x2="255.08" y2="3.73"/><rect class="cls-2" x="281.41" y="29.2" width="209.85" height="57.84"/><polygon class="cls-3" points="491.27 87.04 281.42 87.04 255.08 60.59 465.91 60.59 491.27 87.04"/><rect class="cls-4" x="281.41" y="87.04" width="209.85" height="57.84"/><polyline class="cls-1" points="465.91 60.59 255.08 60.59 281.42 88.02"/><polyline class="cls-1" points="491.27 88.27 465.91 60.59 465.91 3.73"/><line class="cls-1" x1="281.41" y1="144.88" x2="255.08" y2="117.46"/><line class="cls-1" x1="255.08" y1="60.59" x2="255.08" y2="117.46"/><polygon class="cls-1" points="491.27 144.15 465.91 117.45 255.08 117.45 281.42 143.9 491.27 144.15"/><line class="cls-2" x1="281.41" y1="87.04" x2="281.41" y2="29.2"/><line class="cls-1" x1="465.91" y1="117.46" x2="465.91" y2="60.59"/><path class="cls-5" d="M153.18,352.68v18.45h12.9l-0.35-4.42a1.07,1.07,0,0,1,1.21-1.3h4.85a1.15,1.15,0,0,1,1.3,1.3V382a1.15,1.15,0,0,1-1.3,1.3h-4.85a1.07,1.07,0,0,1-1.21-1.3l0.26-4.16H153.18v19.92H173l-0.35-6.15a1.07,1.07,0,0,1,1.21-1.3h4.85a1.15,1.15,0,0,1,1.3,1.3v11.6a1.15,1.15,0,0,1-1.3,1.3H138.89a1.15,1.15,0,0,1-1.3-1.3V399a1.15,1.15,0,0,1,1.3-1.3h4.59V352.76h-4.59a1.15,1.15,0,0,1-1.3-1.3V347a1.15,1.15,0,0,1,1.3-1.3H177a1.15,1.15,0,0,1,1.3,1.3v11.6A1.15,1.15,0,0,1,177,360h-4.85a1.07,1.07,0,0,1-1.21-1.3l0.35-6h-18.1Z" transform="translate(1.61 -126.79)"/><path class="cls-5" d="M185.65,367.48V363a1.15,1.15,0,0,1,1.3-1.3h11.86a1.26,1.26,0,0,1,1.3,1.3l0.69,5q4.5-7.27,13.51-7.27t11.86,7.62a15,15,0,0,1,13.6-7.62q13.42,0,13.42,14.72v22.25h4.94a1.15,1.15,0,0,1,1.3,1.3v4.24a1.15,1.15,0,0,1-1.3,1.3H239.08a1.15,1.15,0,0,1-1.3-1.3V399a1.15,1.15,0,0,1,1.3-1.3h4.42V379.78q0-5.45-1.39-8t-5.58-2.51a9.68,9.68,0,0,0-6.71,2.25,6.89,6.89,0,0,0-2.51,5.28v20.87h4.16a1.15,1.15,0,0,1,1.3,1.3v4.24a1.15,1.15,0,0,1-1.3,1.3H213.71a1.15,1.15,0,0,1-1.3-1.3V399a1.15,1.15,0,0,1,1.3-1.3h3.9V379.78q0-5.45-1.39-8t-5.67-2.51a9,9,0,0,0-6.75,2.55,8.28,8.28,0,0,0-2.47,5.93v19.92h5.28a1.15,1.15,0,0,1,1.3,1.3v4.24a1.15,1.15,0,0,1-1.3,1.3H187a1.15,1.15,0,0,1-1.3-1.3V399a1.15,1.15,0,0,1,1.3-1.3h4.59V368.78H187A1.15,1.15,0,0,1,185.65,367.48Z" transform="translate(1.61 -126.79)"/><path class="cls-5" d="M269.82,417.62V368.78h-4.68a1.15,1.15,0,0,1-1.3-1.3V363a1.15,1.15,0,0,1,1.3-1.3h11.78a1.32,1.32,0,0,1,1.3,1.3l0.87,5.2q4.42-7.45,13.6-7.45,8,0,12.47,5.24t4.5,15.46q0,12.39-5.28,18.27a17.43,17.43,0,0,1-13.6,5.89,17.13,17.13,0,0,1-11.26-3.64v15.59h9.18a1.15,1.15,0,0,1,1.3,1.3v4.33a1.15,1.15,0,0,1-1.3,1.3H265.23a1.15,1.15,0,0,1-1.3-1.3v-4.24a1.15,1.15,0,0,1,1.3-1.3h4.59Zm9.7-39.4v16.54a12.43,12.43,0,0,0,4.24,2.51,15.27,15.27,0,0,0,5.63,1.13,9.34,9.34,0,0,0,7.75-3.42q2.73-3.42,2.73-11.56,0-11.08-4.85-13.59a12.11,12.11,0,0,0-5.71-1.13,10.29,10.29,0,0,0-6.71,2.55A8.58,8.58,0,0,0,279.52,378.22Z" transform="translate(1.61 -126.79)"/><path class="cls-5" d="M331.82,397.71h5.45a1.15,1.15,0,0,1,1.3,1.3v4.24a1.15,1.15,0,0,1-1.3,1.3H316.67a1.15,1.15,0,0,1-1.3-1.3V399a1.15,1.15,0,0,1,1.3-1.3h5.45V368.78h-4.68a1.15,1.15,0,0,1-1.3-1.3V363a1.15,1.15,0,0,1,1.3-1.3h13.08a1.15,1.15,0,0,1,1.3,1.3v34.72ZM321.34,354a6.15,6.15,0,0,1-1.64-4.42,6.22,6.22,0,0,1,1.69-4.46,6.6,6.6,0,0,1,9,0,6.22,6.22,0,0,1,1.69,4.46,6,6,0,0,1-1.73,4.42,6.15,6.15,0,0,1-4.55,1.73A5.85,5.85,0,0,1,321.34,354Z" transform="translate(1.61 -126.79)"/><path class="cls-5" d="M362.82,363.2a11.72,11.72,0,0,1,7.19-2.47,19.89,19.89,0,0,1,6,.69,1.47,1.47,0,0,1,1,1.56v11.69a1.15,1.15,0,0,1-1.3,1.3H370.1a1.07,1.07,0,0,1-1.21-1.3l0.35-5a8.62,8.62,0,0,0-1.47-.09,8.08,8.08,0,0,0-6.58,3.25q-2.6,3.25-2.6,8.7v16.19h9.53a1.15,1.15,0,0,1,1.3,1.3v4.24a1.15,1.15,0,0,1-1.3,1.3H344.29a1.15,1.15,0,0,1-1.3-1.3V399a1.15,1.15,0,0,1,1.3-1.3h4.59V368.78H344.2a1.15,1.15,0,0,1-1.3-1.3V363a1.15,1.15,0,0,1,1.3-1.3h11.43a1.4,1.4,0,0,1,1.47,1.3l1,6.15A14.41,14.41,0,0,1,362.82,363.2Z" transform="translate(1.61 -126.79)"/><path class="cls-5" d="M400.14,352.68v18.45H413l-0.35-4.42a1.07,1.07,0,0,1,1.21-1.3h4.85a1.15,1.15,0,0,1,1.3,1.3V382a1.15,1.15,0,0,1-1.3,1.3h-4.85a1.07,1.07,0,0,1-1.21-1.3l0.26-4.16H400.14v19.92H420l-0.35-6.15a1.07,1.07,0,0,1,1.21-1.3h4.85a1.15,1.15,0,0,1,1.3,1.3v11.6a1.15,1.15,0,0,1-1.3,1.3H385.85a1.15,1.15,0,0,1-1.3-1.3V399a1.15,1.15,0,0,1,1.3-1.3h4.59V352.76h-4.59a1.15,1.15,0,0,1-1.3-1.3V347a1.15,1.15,0,0,1,1.3-1.3H424a1.15,1.15,0,0,1,1.3,1.3v11.6A1.15,1.15,0,0,1,424,360h-4.85a1.07,1.07,0,0,1-1.21-1.3l0.35-6h-18.1Z" transform="translate(1.61 -126.79)"/><path class="cls-5" d="M473.31,417.71h4.59a1.15,1.15,0,0,1,1.3,1.3v4.16a1.15,1.15,0,0,1-1.3,1.3h-13a1.15,1.15,0,0,1-1.3-1.3V399.09q-4.07,6.5-12.6,6.5t-13-5.46q-4.5-5.45-4.5-16.45t5.33-17a17.55,17.55,0,0,1,13.72-6,16.88,16.88,0,0,1,7.4,1.6,12.34,12.34,0,0,1,5.07,4.2l0.87-3.55a1.53,1.53,0,0,1,1.39-1.3h10.82a1.15,1.15,0,0,1,1.3,1.3v4.5a1.15,1.15,0,0,1-1.3,1.3h-4.76v48.93Zm-9.7-29.53V373a11,11,0,0,0-1.08-1.3,13.06,13.06,0,0,0-3.2-2,11.57,11.57,0,0,0-5.32-1.26,9.72,9.72,0,0,0-7.79,3.46q-2.94,3.47-2.94,10.65,0,11.61,4.85,14.37a11.55,11.55,0,0,0,5.8,1.21,9.7,9.7,0,0,0,6.71-2.73A9.32,9.32,0,0,0,463.61,388.18Z" transform="translate(1.61 -126.79)"/><path class="cls-5" d="M525.7,397.71h3.81a1.15,1.15,0,0,1,1.3,1.3v4.24a1.15,1.15,0,0,1-1.3,1.3h-9.7a1.33,1.33,0,0,1-1.3-1.3l-0.78-4.85a17.5,17.5,0,0,1-14.55,7.19q-14,0-14-14.72V368.78h-4.59a1.15,1.15,0,0,1-1.3-1.3V363a1.15,1.15,0,0,1,1.3-1.3h13a1.15,1.15,0,0,1,1.3,1.3v25.29q0,5.19,1.34,7.4t5.72,2.21a10.34,10.34,0,0,0,7.23-2.6,7.8,7.8,0,0,0,2.86-5.89V368.78h-5.46a1.15,1.15,0,0,1-1.3-1.3V363a1.15,1.15,0,0,1,1.3-1.3H524.4a1.15,1.15,0,0,1,1.3,1.3v34.72Z" transform="translate(1.61 -126.79)"/><path class="cls-5" d="M562.68,378.83v-3q0-6.15-3.46-7.71a12.76,12.76,0,0,0-4.76-.69q-5.89,0-7.1,5.54a1.33,1.33,0,0,1-1.3,1.3h-5.54a1,1,0,0,1-1.21-1.3q0.35-6.32,5.11-9.27t12.12-2.94q15.5,0,15.5,14.2v22.77h3.72a1.15,1.15,0,0,1,1.3,1.3v4.24a1.15,1.15,0,0,1-1.3,1.3H565.54a1.26,1.26,0,0,1-1.3-1.3l-0.61-4q-4.68,6.32-13.51,6.32a14.27,14.27,0,0,1-9.18-2.9q-3.64-2.9-3.64-9.31,0-8.4,7-11.52a35.54,35.54,0,0,1,13.85-2.94Q559.82,378.92,562.68,378.83Zm0.17,12.64V384.8q-8.31,0-10.22.78t-3.38,1.56q-2.77,1.47-2.77,5.37,0,6,6.84,6a10.55,10.55,0,0,0,7-2.12A6.28,6.28,0,0,0,562.85,391.47Z" transform="translate(1.61 -126.79)"/><path class="cls-5" d="M598.79,341.25v56.46h5.46a1.15,1.15,0,0,1,1.3,1.3v4.24a1.15,1.15,0,0,1-1.3,1.3H583.63a1.15,1.15,0,0,1-1.3-1.3V399a1.15,1.15,0,0,1,1.3-1.3h5.46V347h-4.68a1.15,1.15,0,0,1-1.3-1.3v-4.5a1.15,1.15,0,0,1,1.3-1.3h13.07A1.15,1.15,0,0,1,598.79,341.25Z" transform="translate(1.61 -126.79)"/><line class="cls-1" x1="271.67" y1="419.21" x2="474.67" y2="419.21"/><text class="cls-6" transform="translate(194.84 359.57)">Sign In. Be H<tspan x="258.28" y="0">e</tspan><tspan x="281.96" y="0">a</tspan><tspan x="305.68" y="0">r</tspan><tspan x="321.28" y="0">d. </tspan></text></svg>